# xmcd
#
# Track frame offsets:
# 150
# 16251
# 35581
# 52244
# 65495
# 79494
# 101083
# 119040
# 140288
# 157727
# 175013
# 194982
# 212778
# 229577
# 247244
#
# Disc length: 3529 seconds
#
#
# Revision: 4
# Processed by: cddbd v1.5.2PL0 Copyright (c) Steve Scherf et al.
# Submitted via: FreeRIP 2.951 
#
DISCID=e00dc70f
DTITLE=CALCINHA PRETA - VOL. 11
DYEAR=2004
DGENRE=FORRÓ
TTITLE0=hoje a noite
TTITLE1=hipnose
TTITLE2=não tenho nada
TTITLE3=baby dool
TTITLE4=eu quero é gozar a vida
TTITLE5=morrendo de desejo
TTITLE6=ansia
TTITLE7=meu amor não vá
TTITLE8=quem sabe um dia
TTITLE9=vem ver a calc. preta
TTITLE10=te quero namorar
TTITLE11=porque te amo?
TTITLE12=por amor
TTITLE13=seu namorado
TTITLE14=amor da minha vida
EXTD=
EXTT0=
EXTT1=
EXTT2=
EXTT3=
EXTT4=
EXTT5=
EXTT6=
EXTT7=
EXTT8=
EXTT9=
EXTT10=
EXTT11=
EXTT12=
EXTT13=
EXTT14=
PLAYORDER=
